<svg height="464pt" viewBox="-40 0 464 464" width="464pt" xmlns="http://www.w3.org/2000/svg">
<path style="fill:#7c7c7c;" d="m40 40h-40v248h88v-16h-48zm0 0"/>
<path style="fill:#7c7c7c;" d="m152 216v40h32v-120h16v120h128v-256h-72c-30.871094 0-56 25.121094-56 56v64h-16v-64c0-30.878906-25.128906-56-56-56h-72v256h32v-72c0-8.824219 7.175781-16 16-16 26.472656 0 48 21.527344 48 48zm64-176h96v16h-96zm0 32h96v16h-96zm0 32h96v16h-96zm0 56h96v16h-96zm88 32v16h-16v-16zm-32 0v16h-16v-16zm-32 0v16h-16v-16zm-24 32h96v16h-96zm-144-184h96v16h-96zm88 32v16h-16v-16zm-32 0v16h-16v-16zm-32 0v16h-16v-16zm-24 32h96v16h-96zm0 48v-16h96v16zm0 0"/><path style="fill:#7c7c7c;" d="m144 432h72v16h-72v16h104v-16h-16v-16h16v-16h-104zm0 0"/><path style="fill:#7c7c7c;" d="m344 40v232h-180.863281c12.863281 13.511719 21.679687 29.855469 25.902343 47.625.992188.128906 1.960938.375 2.960938.375 13.230469 0 24-10.769531 24-24v-8h168v-248zm0 0"/><path style="fill:#7c7c7c;" d="m192 336c-.128906 0-.257812-.023438-.390625-.023438.199219 2.664063.390625 5.328126.390625 8.023438h-16c0-23.65625-9.207031-45.894531-25.9375-62.625l-14.0625-14.0625v-51.3125c0-17.648438-14.351562-32-32-32v135.710938c0 4.074218 1.046875 8.105468 3.015625 11.65625l31.953125 57.503906c1.933594 3.488281 3.261719 7.257812 4.085938 11.136718h105.65625c.5625-3.238281 1.394531-6.414062 2.746093-9.464843l26.480469-59.582031c1.367188-3.089844 2.0625-6.367188 2.0625-9.753907v-17.207031h-48.808594c-3.710937 18.230469-19.871094 32-39.191406 32zm0 0"/></svg>